<svg width="44" height="44" viewBox="0 0 44 44" fill="none" xmlns="http://www.w3.org/2000/svg">
<circle cx="22" cy="22" r="22" fill="#E6D115" fill-opacity="0.1"/>
<path d="M20.2591 12.2222C21.788 12.2212 23.2854 12.657 24.575 13.4782C25.8647 14.2995 26.8928 15.472 27.5386 16.8579C28.1843 18.2438 28.4206 19.7852 28.2199 21.3009C28.0191 22.8166 27.3895 24.2434 26.4052 25.4133L31.5735 30.5851C31.6384 30.6499 31.6899 30.7269 31.7251 30.8117C31.7602 30.8964 31.7783 30.9872 31.7783 31.079C31.7784 31.1707 31.7603 31.2616 31.7252 31.3463C31.6902 31.4311 31.6387 31.5081 31.5739 31.573C31.509 31.6379 31.4321 31.6894 31.3473 31.7245C31.2626 31.7597 31.1717 31.7778 31.08 31.7778C30.9883 31.7778 30.8974 31.7598 30.8127 31.7247C30.7279 31.6896 30.6509 31.6382 30.586 31.5734L25.4191 26.4002C24.4303 27.232 23.2555 27.813 21.9943 28.0938C20.7331 28.3747 19.4228 28.3471 18.1745 28.0135C16.9262 27.6799 15.7769 27.05 14.824 26.1774C13.8711 25.3047 13.1428 24.2151 12.7009 23.0009C12.259 21.7867 12.1166 20.4839 12.2857 19.2029C12.4548 17.9219 12.9304 16.7006 13.6723 15.6427C14.4141 14.5848 15.4002 13.7215 16.5469 13.126C17.6936 12.5305 18.967 12.2205 20.2591 12.2222ZM20.2591 26.8891C21.5714 26.8891 22.8542 26.4999 23.9453 25.7709C25.0365 25.0418 25.8869 24.0056 26.3891 22.7932C26.8913 21.5808 27.0227 20.2467 26.7666 18.9596C26.5106 17.6726 25.8787 16.4903 24.9508 15.5624C24.0229 14.6345 22.8406 14.0026 21.5536 13.7466C20.2665 13.4906 18.9324 13.6219 17.72 14.1241C16.5077 14.6263 15.4714 15.4767 14.7423 16.5679C14.0133 17.659 13.6241 18.9418 13.6241 20.2541C13.6262 22.0131 14.3259 23.6996 15.5697 24.9435C16.8136 26.1873 18.5001 26.887 20.2591 26.8891ZM19.5607 17.4604V23.0477C19.5607 23.233 19.6343 23.4106 19.7653 23.5416C19.8963 23.6726 20.0739 23.7462 20.2591 23.7462C20.4444 23.7462 20.622 23.6726 20.753 23.5416C20.884 23.4106 20.9576 23.233 20.9576 23.0477V17.4604C20.9576 17.2752 20.884 17.0975 20.753 16.9665C20.622 16.8355 20.4444 16.762 20.2591 16.762C20.0739 16.762 19.8963 16.8355 19.7653 16.9665C19.6343 17.0975 19.5607 17.2752 19.5607 17.4604ZM22.3544 18.8572V23.0477C22.3544 23.233 22.428 23.4106 22.559 23.5416C22.6899 23.6726 22.8676 23.7462 23.0528 23.7462C23.2381 23.7462 23.4157 23.6726 23.5467 23.5416C23.6777 23.4106 23.7512 23.233 23.7512 23.0477V18.8572C23.7512 18.672 23.6777 18.4943 23.5467 18.3634C23.4157 18.2324 23.2381 18.1588 23.0528 18.1588C22.8676 18.1588 22.6899 18.2324 22.559 18.3634C22.428 18.4943 22.3544 18.672 22.3544 18.8572ZM16.767 20.2541V23.0477C16.767 23.233 16.8406 23.4106 16.9716 23.5416C17.1026 23.6726 17.2802 23.7462 17.4655 23.7462C17.6507 23.7462 17.8283 23.6726 17.9593 23.5416C18.0903 23.4106 18.1639 23.233 18.1639 23.0477V20.2541C18.1639 20.0688 18.0903 19.8912 17.9593 19.7602C17.8283 19.6292 17.6507 19.5556 17.4655 19.5556C17.2802 19.5556 17.1026 19.6292 16.9716 19.7602C16.8406 19.8912 16.767 20.0688 16.767 20.2541Z" fill="#E6D115"/>
</svg>
