<svg width="44" height="44" viewBox="0 0 44 44" fill="none" xmlns="http://www.w3.org/2000/svg">
<circle cx="22" cy="22" r="22" fill="#6E0EA6" fill-opacity="0.1"/>
<path d="M26.3696 14.0581H21.951V12.7363C21.951 12.5999 21.8968 12.4692 21.8004 12.3728C21.7041 12.2764 21.5733 12.2222 21.437 12.2222H20.6293C20.493 12.2222 20.3622 12.2764 20.2658 12.3728C20.1694 12.4692 20.1153 12.5999 20.1153 12.7363V14.0581H15.6967C14.7752 14.0585 13.8916 14.4248 13.24 15.0765C12.5884 15.7281 12.2222 16.6117 12.2217 17.5333V19.6041C12.2217 21.8823 13.1266 24.0671 14.7374 25.678C16.3482 27.2889 18.533 28.1939 20.811 28.1939H21.437C21.5733 28.1939 21.7041 28.1398 21.8004 28.0434C21.8968 27.947 21.951 27.8162 21.951 27.6799V26.8721C21.951 26.7358 21.8968 26.605 21.8004 26.5086C21.7041 26.4122 21.5733 26.3581 21.437 26.3581H20.811C19.0198 26.3581 17.302 25.6465 16.0355 24.3799C14.7689 23.1133 14.0574 21.3954 14.0574 19.6041V17.5333C14.0574 17.0985 14.2301 16.6815 14.5375 16.374C14.845 16.0666 15.2619 15.8939 15.6967 15.8939H26.3696C26.8043 15.8939 27.2213 16.0666 27.5287 16.374C27.8362 16.6815 28.0089 17.0985 28.0089 17.5333V19.7491C28.0077 20.2528 27.9461 20.7545 27.8253 21.2435C27.7933 21.3695 27.8104 21.5029 27.8731 21.6168C27.9358 21.7306 28.0395 21.8164 28.1631 21.8566L28.9341 22.1082C29.0007 22.1303 29.0711 22.1384 29.141 22.1322C29.2109 22.1259 29.2787 22.1054 29.3404 22.0718C29.402 22.0383 29.4561 21.9924 29.4992 21.9371C29.5424 21.8817 29.5737 21.8181 29.5913 21.7502C29.7582 21.0962 29.8433 20.424 29.8446 19.7491V17.5333C29.8441 16.6117 29.4778 15.7281 28.8262 15.0765C28.1747 14.4248 27.291 14.0585 26.3696 14.0581Z" fill="#6E0EA6"/>
<path d="M18.0985 21.7685C18.9095 21.7685 19.567 21.111 19.567 20.2998C19.567 19.4887 18.9095 18.8312 18.0985 18.8312C17.2874 18.8312 16.6299 19.4887 16.6299 20.2998C16.6299 21.111 17.2874 21.7685 18.0985 21.7685Z" fill="#6E0EA6"/>
<path d="M23.9696 21.7685C24.7806 21.7685 25.4381 21.111 25.4381 20.2998C25.4381 19.4887 24.7806 18.8312 23.9696 18.8312C23.1585 18.8312 22.501 19.4887 22.501 20.2998C22.501 21.111 23.1585 21.7685 23.9696 21.7685Z" fill="#6E0EA6"/>
<path d="M29.7969 27.0555L31.46 27.7109C31.4943 27.7245 31.5237 27.748 31.5444 27.7784C31.5651 27.8089 31.5761 27.8448 31.5761 27.8817C31.5761 27.9185 31.5651 27.9545 31.5444 27.9849C31.5237 28.0153 31.4943 28.0389 31.46 28.0524L29.7969 28.7078C29.5025 28.8242 29.2351 28.9998 29.0112 29.2237C28.7873 29.4475 28.6118 29.715 28.4954 30.0094L27.84 31.6616C27.8265 31.6959 27.803 31.7253 27.7725 31.746C27.7421 31.7667 27.7061 31.7777 27.6693 31.7777C27.6325 31.7777 27.5965 31.7667 27.5661 31.746C27.5356 31.7253 27.5121 31.6959 27.4986 31.6616L26.8432 30.0094C26.7271 29.7148 26.5516 29.4472 26.3277 29.2233C26.1038 28.9994 25.8363 28.8239 25.5417 28.7078L23.8895 28.0524C23.8553 28.0389 23.8259 28.0153 23.8052 27.9849C23.7845 27.9545 23.7734 27.9185 23.7734 27.8817C23.7734 27.8448 23.7845 27.8089 23.8052 27.7784C23.8259 27.748 23.8553 27.7245 23.8895 27.7109L25.5417 27.0555C25.8363 26.9394 26.1038 26.7639 26.3277 26.54C26.5516 26.3161 26.7271 26.0485 26.8432 25.7539L27.4986 24.1017C27.5121 24.0675 27.5356 24.0381 27.5661 24.0174C27.5965 23.9967 27.6325 23.9856 27.6693 23.9856C27.7061 23.9856 27.7421 23.9967 27.7725 24.0174C27.803 24.0381 27.8265 24.0675 27.84 24.1017L28.4954 25.7539C28.6118 26.0484 28.7873 26.3158 29.0112 26.5397C29.2351 26.7636 29.5025 26.9391 29.7969 27.0555Z" fill="#6E0EA6"/>
</svg>
