<svg width="44" height="44" viewBox="0 0 44 44" fill="none" xmlns="http://www.w3.org/2000/svg">
<circle cx="22" cy="22" r="22" fill="#1EB46B" fill-opacity="0.1"/>
<path d="M24.3682 16.4611H16.2204C16.0684 16.4611 15.9227 16.5215 15.8153 16.6289C15.7078 16.7364 15.6475 16.8821 15.6475 17.034C15.6475 17.186 15.7078 17.3317 15.8153 17.4392C15.9227 17.5466 16.0684 17.607 16.2204 17.607H24.3682C24.5202 17.607 24.6659 17.5466 24.7733 17.4392C24.8808 17.3317 24.9411 17.186 24.9411 17.034C24.9411 16.8821 24.8808 16.7364 24.7733 16.6289C24.6659 16.5215 24.5202 16.4611 24.3682 16.4611ZM24.9411 19.8426C24.9411 19.6907 24.8808 19.5449 24.7733 19.4375C24.6659 19.33 24.5202 19.2697 24.3682 19.2697H16.2204C16.0684 19.2697 15.9227 19.33 15.8153 19.4375C15.7078 19.5449 15.6475 19.6907 15.6475 19.8426C15.6475 19.9945 15.7078 20.1403 15.8153 20.2477C15.9227 20.3552 16.0684 20.4155 16.2204 20.4155H24.3682C24.5202 20.4155 24.6659 20.3552 24.7733 20.2477C24.8808 20.1403 24.9411 19.9945 24.9411 19.8426ZM16.2204 22.0789C16.0684 22.0789 15.9227 22.1392 15.8153 22.2467C15.7078 22.3541 15.6475 22.4999 15.6475 22.6518C15.6475 22.8038 15.7078 22.9495 15.8153 23.0569C15.9227 23.1644 16.0684 23.2247 16.2204 23.2247H20.5553C20.7072 23.2247 20.8529 23.1644 20.9604 23.0569C21.0678 22.9495 21.1282 22.8038 21.1282 22.6518C21.1282 22.4999 21.0678 22.3541 20.9604 22.2467C20.8529 22.1392 20.7072 22.0789 20.5553 22.0789H16.2204Z" fill="#1EB46B"/>
<path d="M27.7918 26.7234C27.6398 26.7234 27.4941 26.7837 27.3867 26.8912C27.2792 26.9986 27.2189 27.1443 27.2189 27.2963V27.8431C27.2189 28.931 26.3334 29.8165 25.2456 29.8165H15.3408C14.8176 29.8158 14.3161 29.6077 13.9462 29.2377C13.5763 28.8678 13.3681 28.3663 13.3675 27.8431V16.1562C13.3675 15.0683 14.2529 14.1829 15.3408 14.1829H25.2456C26.3334 14.1829 27.2189 15.0683 27.2189 16.1562V17.5058C27.2189 17.6577 27.2792 17.8034 27.3867 17.9109C27.4941 18.0183 27.6398 18.0787 27.7918 18.0787C27.9437 18.0787 28.0894 18.0183 28.1969 17.9109C28.3043 17.8034 28.3647 17.6577 28.3647 17.5058V16.1562C28.3647 14.4362 26.9655 13.037 25.2456 13.037H15.3408C14.5138 13.0379 13.7209 13.3668 13.1362 13.9515C12.5514 14.5363 12.2225 15.3292 12.2217 16.1562V27.8437C12.2217 29.5638 13.6208 30.9629 15.3408 30.9629H25.2456C26.9655 30.9629 28.3647 29.5638 28.3647 27.8437V27.2963C28.3647 27.1443 28.3043 26.9986 28.1969 26.8912C28.0894 26.7837 27.9437 26.7234 27.7918 26.7234Z" fill="#1EB46B"/>
<path d="M30.6304 19.4009C29.9054 18.6758 28.6418 18.6758 27.9168 19.4009L22.9453 24.3719C22.7907 24.5264 22.6883 24.7254 22.6525 24.941L22.4042 26.414C22.3764 26.5795 22.3885 26.7492 22.4394 26.909C22.4903 27.0689 22.5787 27.2143 22.6971 27.3332C22.8159 27.452 22.9613 27.5407 23.1213 27.592C23.2813 27.6432 23.4512 27.6556 23.6169 27.6279L25.0886 27.3784C25.305 27.3428 25.5024 27.2415 25.6602 27.0849L30.6304 22.1139C30.9897 21.7539 31.1914 21.266 31.1914 20.7574C31.1914 20.2488 30.9897 19.7609 30.6304 19.4009ZM24.9002 26.2491L23.5539 26.477L23.7563 25.1816L27.3967 21.541L28.4935 22.6378L24.9002 26.2491ZM29.8207 21.3049L29.3019 21.8262L28.2071 20.7313L28.7271 20.2112C28.8729 20.0654 29.0677 19.9852 29.2739 19.9852C29.4802 19.9852 29.6743 20.0654 29.8207 20.2112C29.9654 20.3564 30.0466 20.5531 30.0466 20.758C30.0466 20.963 29.9654 21.1597 29.8207 21.3049Z" fill="#1EB46B"/>
</svg>
