<svg width="6" height="10" viewBox="0 0 6 10" fill="none" xmlns="http://www.w3.org/2000/svg">
<path d="M0.162909 5.3902L4.70779 9.84025C4.8129 9.94325 4.95323 10 5.10285 10C5.25247 10 5.39279 9.94325 5.49791 9.84025L5.83261 9.51261C6.0504 9.29911 6.0504 8.95212 5.83261 8.73895L2.01616 5.00207L5.83684 1.26105C5.94196 1.15804 6 1.02072 6 0.874302C6 0.727717 5.94196 0.590401 5.83684 0.487312L5.50215 0.159754C5.39694 0.0567474 5.2567 0 5.10708 0C4.95746 0 4.81714 0.0567474 4.71202 0.159754L0.162909 4.61386C0.0575418 4.7172 -0.000330448 4.85516 1.43051e-06 5.00183C-0.000330448 5.14906 0.0575418 5.28695 0.162909 5.3902Z" fill="#B7B7B7"/>
</svg>
