<svg width="40" height="40" viewBox="0 0 40 40" fill="none" xmlns="http://www.w3.org/2000/svg">
<circle cx="20" cy="20" r="20" fill="#EFEFEF"/>
<path d="M18.219 9.00001C19.7827 8.99896 21.3141 9.44462 22.633 10.2845C23.9519 11.1245 25.0035 12.3237 25.6639 13.741C26.3243 15.1584 26.566 16.7349 26.3607 18.285C26.1553 19.8351 25.5114 21.2943 24.5048 22.4909L29.7906 27.7802C29.8569 27.8465 29.9096 27.9253 29.9455 28.0119C29.9815 28.0986 30 28.1915 30 28.2853C30 28.3791 29.9816 28.472 29.9457 28.5587C29.9098 28.6454 29.8572 28.7242 29.7909 28.7906C29.7246 28.8569 29.6459 28.9096 29.5592 28.9455C29.4725 28.9815 29.3796 29 29.2858 29C29.192 29 29.0991 28.9816 29.0124 28.9457C28.9257 28.9098 28.8469 28.8572 28.7806 28.7909L23.4962 23.5002C22.485 24.3509 21.2835 24.9451 19.9936 25.2323C18.7038 25.5196 17.3636 25.4914 16.087 25.1502C14.8104 24.809 13.6349 24.1648 12.6603 23.2723C11.6858 22.3798 10.9409 21.2654 10.489 20.0237C10.0371 18.7819 9.89138 17.4494 10.0643 16.1393C10.2373 14.8292 10.7237 13.5802 11.4824 12.4982C12.2411 11.4163 13.2497 10.5333 14.4224 9.92431C15.5952 9.31531 16.8976 8.99824 18.219 9.00001ZM18.219 24.0002C19.5611 24.0002 20.8731 23.6022 21.989 22.8566C23.1049 22.1109 23.9747 21.0511 24.4883 19.8112C25.0019 18.5712 25.1362 17.2068 24.8744 15.8905C24.6126 14.5742 23.9663 13.3651 23.0173 12.4161C22.0683 11.4671 20.8592 10.8208 19.5429 10.559C18.2265 10.2971 16.8622 10.4315 15.6222 10.9451C14.3823 11.4587 13.3225 12.3285 12.5768 13.4444C11.8312 14.5603 11.4332 15.8723 11.4332 17.2144C11.4353 19.0134 12.1509 20.7382 13.423 22.0104C14.6952 23.2825 16.42 23.9981 18.219 24.0002ZM17.5047 14.3572V20.0715C17.5047 20.261 17.58 20.4427 17.7139 20.5766C17.8479 20.7106 18.0296 20.7858 18.219 20.7858C18.4085 20.7858 18.5901 20.7106 18.7241 20.5766C18.8581 20.4427 18.9333 20.261 18.9333 20.0715V14.3572C18.9333 14.1678 18.8581 13.9861 18.7241 13.8521C18.5901 13.7182 18.4085 13.6429 18.219 13.6429C18.0296 13.6429 17.8479 13.7182 17.7139 13.8521C17.58 13.9861 17.5047 14.1678 17.5047 14.3572ZM20.3619 15.7858V20.0715C20.3619 20.261 20.4372 20.4427 20.5711 20.5766C20.7051 20.7106 20.8867 20.7858 21.0762 20.7858C21.2656 20.7858 21.4473 20.7106 21.5813 20.5766C21.7152 20.4427 21.7905 20.261 21.7905 20.0715V15.7858C21.7905 15.5963 21.7152 15.4147 21.5813 15.2807C21.4473 15.1468 21.2656 15.0715 21.0762 15.0715C20.8867 15.0715 20.7051 15.1468 20.5711 15.2807C20.4372 15.4147 20.3619 15.5963 20.3619 15.7858ZM14.6476 17.2144V20.0715C14.6476 20.261 14.7228 20.4427 14.8568 20.5766C14.9907 20.7106 15.1724 20.7858 15.3618 20.7858C15.5513 20.7858 15.733 20.7106 15.8669 20.5766C16.0009 20.4427 16.0761 20.261 16.0761 20.0715V17.2144C16.0761 17.0249 16.0009 16.8433 15.8669 16.7093C15.733 16.5753 15.5513 16.5001 15.3618 16.5001C15.1724 16.5001 14.9907 16.5753 14.8568 16.7093C14.7228 16.8433 14.6476 17.0249 14.6476 17.2144Z" fill="black"/>
</svg>
