<svg width="29" height="38" viewBox="0 0 29 38" fill="none" xmlns="http://www.w3.org/2000/svg">
<path d="M4.94336 0H17.6578L28.4206 11.2289V33.0566C28.4206 35.787 26.2076 38 23.4773 38H4.94336C2.21296 38 0 35.787 0 33.0566V4.94336C0 2.21301 2.21296 0 4.94336 0Z" fill="#0263D1"/>
<path fill-rule="evenodd" clip-rule="evenodd" d="M17.6426 0V11.1367H28.4207L17.6426 0Z" fill="white"/>
<path d="M4.58984 27.1143V20.8237H6.81822C7.26387 20.8237 7.67885 20.8903 8.06305 21.0132C8.44725 21.1413 8.79558 21.3257 9.1081 21.5716C9.42057 21.8175 9.66649 22.1454 9.84577 22.5552C10.025 22.965 10.1173 23.4363 10.1173 23.969C10.1173 24.5018 10.025 24.9731 9.84577 25.3828C9.66649 25.7926 9.42057 26.1205 9.1081 26.3664C8.79563 26.6123 8.44725 26.7967 8.06305 26.9248C7.67885 27.0477 7.26392 27.1143 6.81822 27.1143H4.58984ZM6.16251 25.7466H6.62866C6.87968 25.7466 7.11532 25.7159 7.32533 25.6595C7.54048 25.598 7.73512 25.5007 7.91954 25.3726C8.10396 25.2445 8.24737 25.0602 8.34983 24.8194C8.45743 24.5837 8.50861 24.2968 8.50861 23.969C8.50861 23.6412 8.45738 23.3543 8.34983 23.1135C8.24737 22.8779 8.10396 22.6935 7.91954 22.5654C7.73512 22.4322 7.54048 22.34 7.32533 22.2785C7.11532 22.2222 6.87968 22.1914 6.62866 22.1914H6.16251V25.7466ZM13.9336 27.1861C12.986 27.1861 12.2022 26.8787 11.5823 26.2691C10.9625 25.6595 10.6551 24.8911 10.6551 23.9691C10.6551 23.047 10.9625 22.2786 11.5823 21.669C12.2022 21.0594 12.986 20.752 13.9336 20.752C14.8659 20.752 15.6395 21.0594 16.2593 21.669C16.874 22.2786 17.1814 23.047 17.1814 23.9691C17.1814 24.8911 16.874 25.6595 16.2593 26.2691C15.6395 26.8787 14.8659 27.1861 13.9336 27.1861ZM12.7247 25.2958C13.0371 25.6441 13.4367 25.8183 13.9234 25.8183C14.41 25.8183 14.8044 25.6441 15.117 25.2958C15.4294 24.9423 15.5831 24.5018 15.5831 23.969C15.5831 23.4363 15.4294 22.9957 15.117 22.6422C14.8045 22.2939 14.41 22.1197 13.9234 22.1197C13.4367 22.1197 13.0371 22.2939 12.7247 22.6422C12.4122 22.9957 12.2534 23.4363 12.2534 23.969C12.2534 24.5018 12.4122 24.9423 12.7247 25.2958ZM20.9209 27.1861C20.004 27.1861 19.2407 26.8992 18.6363 26.3357C18.0266 25.7671 17.7244 24.9782 17.7244 23.969C17.7244 22.965 18.0318 22.1761 18.6465 21.6074C19.2664 21.0388 20.0194 20.752 20.921 20.752C21.7355 20.752 22.4014 20.9517 22.9291 21.3564C23.4516 21.756 23.7539 22.2887 23.8307 22.9547L22.2426 23.2774C22.1761 22.9291 22.0172 22.6474 21.7714 22.4373C21.5255 22.2272 21.2386 22.1197 20.9107 22.1197C20.4599 22.1197 20.086 22.2785 19.7837 22.6012C19.4815 22.929 19.3278 23.3798 19.3278 23.969C19.3278 24.5581 19.4815 25.0089 19.7786 25.3316C20.0808 25.6594 20.4548 25.8183 20.9107 25.8183C21.2385 25.8183 21.5203 25.7261 21.7508 25.5417C21.9813 25.3573 22.1248 25.1114 22.1862 24.804L23.8101 25.1728C23.6616 25.808 23.3337 26.2998 22.8214 26.6533C22.3143 27.0068 21.6791 27.1861 20.9209 27.1861Z" fill="white"/>
</svg>
