<svg width="29" height="38" viewBox="0 0 29 38" fill="none" xmlns="http://www.w3.org/2000/svg">
<path fill-rule="evenodd" clip-rule="evenodd" d="M4.947 0H17.6516L28.4192 11.2234V33.053C28.4192 35.7876 26.2069 38 23.4817 38H4.947C2.21238 38 7.81461e-10 35.7876 7.81461e-10 33.053V4.94701C-4.80121e-05 2.21239 2.21234 0 4.947 0Z" fill="#E5252A"/>
<path fill-rule="evenodd" clip-rule="evenodd" d="M17.6418 0V11.1379H28.419L17.6418 0Z" fill="white"/>
<path d="M5.49731 28.3529V21.4119H8.45034C9.18148 21.4119 9.76071 21.6113 10.1975 22.0196C10.6343 22.4184 10.8527 22.9596 10.8527 23.6338C10.8527 24.3079 10.6343 24.8492 10.1975 25.248C9.76071 25.6563 9.18148 25.8557 8.45034 25.8557H7.27293V28.3529H5.49731ZM7.27293 24.3459H8.25095C8.51679 24.3459 8.7257 24.2889 8.86815 24.156C9.01056 24.0326 9.08656 23.8617 9.08656 23.6338C9.08656 23.4059 9.01061 23.235 8.86815 23.1116C8.72575 22.9786 8.51684 22.9217 8.25095 22.9217H7.27293V24.3459ZM11.5838 28.3529V21.4119H14.043C14.5273 21.4119 14.9831 21.4783 15.4103 21.6208C15.8376 21.7632 16.2269 21.9626 16.5687 22.238C16.9106 22.5038 17.1859 22.8646 17.3853 23.3204C17.5752 23.7762 17.6797 24.2984 17.6797 24.8871C17.6797 25.4664 17.5753 25.9886 17.3853 26.4443C17.1859 26.9001 16.9106 27.2609 16.5687 27.5268C16.2269 27.8021 15.8376 28.0015 15.4103 28.144C14.9831 28.2864 14.5273 28.3529 14.043 28.3529H11.5838ZM13.3214 26.8432H13.8341C14.1095 26.8432 14.3659 26.8147 14.6032 26.7482C14.8311 26.6818 15.0495 26.5773 15.2584 26.4349C15.4578 26.2925 15.6192 26.093 15.7332 25.8272C15.8471 25.5613 15.9041 25.248 15.9041 24.8871C15.9041 24.5168 15.8471 24.2035 15.7332 23.9376C15.6192 23.6718 15.4578 23.4724 15.2584 23.3299C15.0495 23.1875 14.8312 23.083 14.6032 23.0166C14.3659 22.9501 14.1095 22.9216 13.8341 22.9216H13.3214V26.8432ZM18.5723 28.3529V21.4119H23.5098V22.9216H20.3479V24.0326H22.8736V25.5328H20.3479V28.3529H18.5723Z" fill="white"/>
</svg>
