<svg width="29" height="38" viewBox="0 0 29 38" fill="none" xmlns="http://www.w3.org/2000/svg">
<path fill-rule="evenodd" clip-rule="evenodd" d="M4.93721 0H17.6547L28.4168 11.2336V33.0489C28.4168 35.781 26.2117 38 23.4796 38H4.93721C2.21896 38 7.79129e-10 35.781 7.79129e-10 33.0489V4.93721C-4.80121e-05 2.21896 2.21896 0 4.93721 0Z" fill="#00733B"/>
<path fill-rule="evenodd" clip-rule="evenodd" d="M17.6396 0V11.1365H28.4156L17.6396 0Z" fill="white"/>
<path d="M11.8151 27.668H9.97061L8.70859 25.5461L7.44652 27.668H5.58813L7.7794 23.979L5.85168 20.7753H7.71002L8.70854 22.4395L9.69319 20.7753H11.5516L9.63769 23.9928L11.8151 27.668ZM12.4669 27.668V20.7753H14.2282V26.1702H17.2239V27.668H12.4669V27.668ZM20.1363 27.7512C19.4428 27.7512 18.8326 27.5293 18.3056 27.0994C17.7925 26.6833 17.5013 26.1563 17.4597 25.5323L18.9713 25.0885C19.013 25.4213 19.1516 25.7126 19.3874 25.9345C19.637 26.1564 19.9144 26.2673 20.2195 26.2673C20.4692 26.2673 20.6772 26.2118 20.8436 26.1009C20.9961 25.9899 21.0794 25.8374 21.0794 25.6571C21.0794 25.5046 21.01 25.3797 20.8852 25.2688C20.7604 25.1717 20.5939 25.0885 20.3998 25.0192C20.2056 24.9498 19.9699 24.8804 19.7341 24.825C19.4845 24.7557 19.2348 24.6725 18.9991 24.5615C18.7494 24.4644 18.5275 24.3396 18.3334 24.187C18.1253 24.0483 17.9728 23.8403 17.8479 23.5768C17.7231 23.3272 17.6538 23.0221 17.6538 22.6754C17.6538 22.1067 17.8895 21.6352 18.3749 21.2608C18.8603 20.8724 19.4428 20.6921 20.1224 20.6921C20.8019 20.6921 21.3983 20.8586 21.8975 21.1775C22.3968 21.5104 22.7158 21.9403 22.8406 22.4673L21.2596 23.133C21.1903 22.8418 21.0516 22.606 20.8574 22.4257C20.6632 22.2593 20.4136 22.1622 20.1224 22.1622C19.9004 22.1622 19.734 22.2177 19.5954 22.301C19.4705 22.3842 19.4151 22.509 19.4151 22.6615C19.4151 22.8002 19.4983 22.925 19.6647 23.0221C19.8311 23.1053 20.053 23.1746 20.3027 23.2163C20.5523 23.2579 20.8296 23.3272 21.1209 23.4243C21.426 23.5353 21.6895 23.6462 21.953 23.7988C22.2026 23.9375 22.4107 24.1732 22.5771 24.4783C22.7574 24.7973 22.8406 25.1718 22.8406 25.6017C22.8406 26.2396 22.5909 26.7667 22.0917 27.155C21.5924 27.5432 20.9407 27.7512 20.1363 27.7512Z" fill="white"/>
</svg>
